<svg width="173" height="51" viewBox="0 0 173 51" fill="none" xmlns="http://www.w3.org/2000/svg">
<path d="M80.9919 45.4477C80.9919 45.0637 80.9439 44.5357 80.8959 43.7677C80.8479 43.0477 80.7999 42.1837 80.7039 41.1757C80.6079 40.2157 80.4639 39.1597 80.3199 38.0077C80.1759 36.9037 80.0319 35.7517 79.8399 34.5037L79.3599 31.1917C79.1679 30.0397 79.0239 28.8877 78.8319 27.7357L78.1119 24.2797C77.8239 23.1757 77.4879 22.0717 77.1519 21.0157C76.9599 20.4877 76.6719 19.9117 76.3839 19.2877C76.0959 18.7117 75.7119 18.1357 75.2799 17.5597C74.7999 17.0797 74.2719 16.6477 73.6959 16.2637C73.0719 15.9277 72.3999 15.7357 71.6319 15.7357C70.4799 15.7357 69.4239 16.1677 68.3679 16.9837C67.3119 17.8477 66.3039 18.9037 65.3439 20.1517C64.3839 21.4957 63.4719 22.9357 62.6559 24.5677C61.7919 26.1997 61.0719 27.7837 60.3999 29.3197C59.7279 30.9037 59.1519 32.3437 58.6719 33.6877C58.1919 35.0797 57.8079 36.1837 57.6159 36.9517C57.2799 36.8557 56.9919 36.8077 56.7039 36.7117C56.3679 36.6637 56.0319 36.6157 55.6959 36.6157C54.8319 36.6157 54.2559 36.8557 53.9199 37.2877C53.8239 37.4317 53.7759 37.5277 53.7279 37.6237L53.3439 38.3917C53.2959 38.5837 53.2479 38.7277 53.1999 38.8717C53.3439 39.3517 53.4879 39.7357 53.6799 40.0237C53.8239 40.3117 54.0159 40.5517 54.3039 40.6957C54.4959 40.8877 54.7839 40.9837 55.1679 41.0317C55.4559 41.1277 55.8879 41.1757 56.3679 41.1757C56.2239 41.7037 56.0799 42.2317 55.9839 42.8077C55.8399 43.3837 55.6959 43.9597 55.5999 44.5357C55.4079 45.2077 55.3119 45.8317 55.2639 46.4077C55.1679 47.0317 55.1199 47.6077 55.1199 48.1357C55.1199 48.4237 55.2639 48.7117 55.5519 48.9037C55.7919 49.0957 56.1279 49.2877 56.5119 49.4797C56.8479 49.6237 57.2319 49.7197 57.6159 49.8157C57.9999 49.9117 58.2879 49.9597 58.5759 49.9597C59.1519 49.9597 59.6799 49.7197 60.1599 49.2397C60.6399 48.7597 60.8799 48.2797 60.8799 47.7517C60.8799 46.6957 60.9279 45.5917 61.0239 44.4397C61.1199 43.2877 61.2639 42.1837 61.4559 41.1277C62.7039 41.0797 63.9519 40.9837 65.1519 40.8877C66.3039 40.7917 67.4079 40.6957 68.5599 40.5037C69.6639 40.4077 70.8159 40.2157 71.9679 40.0237C73.0719 39.8317 74.2719 39.5917 75.5199 39.3037C75.5199 39.4957 75.5199 39.7837 75.5679 40.1197C75.5679 40.4557 75.6159 40.7917 75.6159 41.0797L75.7119 42.0877V42.7597C75.7119 43.0477 75.6639 43.3357 75.6159 43.5757C75.5199 43.8637 75.4239 44.1517 75.3759 44.3917C75.2799 44.6797 75.1839 44.9677 75.1359 45.2077C75.0399 45.4957 74.9919 45.8317 74.9919 46.1197C74.9919 46.5037 75.0879 46.7917 75.3279 47.0797C75.5199 47.3677 75.7599 47.6557 76.0959 47.8477C76.3839 48.0877 76.7679 48.2797 77.1519 48.3757C77.5359 48.4717 77.8719 48.5197 78.2079 48.5197C79.1679 48.5197 79.8879 48.1837 80.3199 47.5117C80.7519 46.8877 80.9919 46.2157 80.9919 45.4477ZM75.0399 35.6557C72.9279 36.1357 70.8639 36.4717 68.7999 36.7597C66.6879 37.0957 64.5759 37.2877 62.4639 37.2877C62.7999 36.0397 63.2319 34.6957 63.7119 33.3517C64.1919 32.0077 64.7199 30.7117 65.2959 29.3677C65.8719 28.0717 66.4959 26.7757 67.2159 25.5277C67.8879 24.3277 68.6559 23.1757 69.5199 22.0717C69.9519 21.5437 70.3839 21.1117 70.8159 20.7277C71.1999 20.3437 71.4879 20.1517 71.7759 20.1517C71.8239 20.1517 71.8719 20.2477 71.9679 20.3917C72.0159 20.5837 72.0639 20.6797 72.0639 20.6797C72.3039 21.3517 72.4959 21.9757 72.6879 22.5517C72.8319 23.1277 72.9759 23.7517 73.1679 24.3757L73.5999 26.3917L73.8879 28.2157C74.1279 29.3677 74.3679 30.6157 74.5599 31.9117C74.7039 33.2557 74.8479 34.5037 75.0399 35.6557Z" fill="#7755A3"/>
<path d="M112.398 45.4477C112.398 45.0637 112.35 44.5357 112.302 43.7677C112.254 43.0477 112.206 42.1837 112.11 41.1757C112.014 40.2157 111.87 39.1597 111.726 38.0077C111.582 36.9037 111.438 35.7517 111.246 34.5037L110.766 31.1917C110.574 30.0397 110.43 28.8877 110.238 27.7357L109.518 24.2797C109.23 23.1757 108.894 22.0717 108.558 21.0157C108.366 20.4877 108.078 19.9117 107.79 19.2877C107.502 18.7117 107.118 18.1357 106.686 17.5597C106.206 17.0797 105.678 16.6477 105.102 16.2637C104.478 15.9277 103.806 15.7357 103.038 15.7357C101.886 15.7357 100.83 16.1677 99.7742 16.9837C98.7182 17.8477 97.7102 18.9037 96.7502 20.1517C95.7902 21.4957 94.8782 22.9357 94.0622 24.5677C93.1982 26.1997 92.4782 27.7837 91.8062 29.3197C91.1342 30.9037 90.5582 32.3437 90.0782 33.6877C89.5982 35.0797 89.2142 36.1837 89.0222 36.9517C88.6862 36.8557 88.3982 36.8077 88.1102 36.7117C87.7742 36.6637 87.4382 36.6157 87.1022 36.6157C86.2382 36.6157 85.6622 36.8557 85.3262 37.2877C85.2302 37.4317 85.1822 37.5277 85.1342 37.6237L84.7502 38.3917C84.7022 38.5837 84.6542 38.7277 84.6062 38.8717C84.7502 39.3517 84.8942 39.7357 85.0862 40.0237C85.2302 40.3117 85.4222 40.5517 85.7102 40.6957C85.9022 40.8877 86.1902 40.9837 86.5742 41.0317C86.8622 41.1277 87.2942 41.1757 87.7742 41.1757C87.6302 41.7037 87.4862 42.2317 87.3902 42.8077C87.2462 43.3837 87.1022 43.9597 87.0062 44.5357C86.8142 45.2077 86.7182 45.8317 86.6702 46.4077C86.5742 47.0317 86.5262 47.6077 86.5262 48.1357C86.5262 48.4237 86.6702 48.7117 86.9582 48.9037C87.1982 49.0957 87.5342 49.2877 87.9182 49.4797C88.2542 49.6237 88.6382 49.7197 89.0222 49.8157C89.4062 49.9117 89.6942 49.9597 89.9822 49.9597C90.5582 49.9597 91.0862 49.7197 91.5662 49.2397C92.0462 48.7597 92.2862 48.2797 92.2862 47.7517C92.2862 46.6957 92.3342 45.5917 92.4302 44.4397C92.5262 43.2877 92.6702 42.1837 92.8622 41.1277C94.1102 41.0797 95.3582 40.9837 96.5582 40.8877C97.7102 40.7917 98.8142 40.6957 99.9662 40.5037C101.07 40.4077 102.222 40.2157 103.374 40.0237C104.478 39.8317 105.678 39.5917 106.926 39.3037C106.926 39.4957 106.926 39.7837 106.974 40.1197C106.974 40.4557 107.022 40.7917 107.022 41.0797L107.118 42.0877V42.7597C107.118 43.0477 107.07 43.3357 107.022 43.5757C106.926 43.8637 106.83 44.1517 106.782 44.3917C106.686 44.6797 106.59 44.9677 106.542 45.2077C106.446 45.4957 106.398 45.8317 106.398 46.1197C106.398 46.5037 106.494 46.7917 106.734 47.0797C106.926 47.3677 107.166 47.6557 107.502 47.8477C107.79 48.0877 108.174 48.2797 108.558 48.3757C108.942 48.4717 109.278 48.5197 109.614 48.5197C110.574 48.5197 111.294 48.1837 111.726 47.5117C112.158 46.8877 112.398 46.2157 112.398 45.4477ZM106.446 35.6557C104.334 36.1357 102.27 36.4717 100.206 36.7597C98.0942 37.0957 95.9822 37.2877 93.8702 37.2877C94.2062 36.0397 94.6382 34.6957 95.1182 33.3517C95.5982 32.0077 96.1262 30.7117 96.7022 29.3677C97.2782 28.0717 97.9022 26.7757 98.6222 25.5277C99.2942 24.3277 100.062 23.1757 100.926 22.0717C101.358 21.5437 101.79 21.1117 102.222 20.7277C102.606 20.3437 102.894 20.1517 103.182 20.1517C103.23 20.1517 103.278 20.2477 103.374 20.3917C103.422 20.5837 103.47 20.6797 103.47 20.6797C103.71 21.3517 103.902 21.9757 104.094 22.5517C104.238 23.1277 104.382 23.7517 104.574 24.3757L105.006 26.3917L105.294 28.2157C105.534 29.3677 105.774 30.6157 105.966 31.9117C106.11 33.2557 106.254 34.5037 106.446 35.6557Z" fill="#7755A3"/>
<path d="M143.804 45.4477C143.804 45.0637 143.756 44.5357 143.708 43.7677C143.66 43.0477 143.612 42.1837 143.516 41.1757C143.42 40.2157 143.276 39.1597 143.132 38.0077C142.988 36.9037 142.844 35.7517 142.652 34.5037L142.172 31.1917C141.98 30.0397 141.836 28.8877 141.644 27.7357L140.924 24.2797C140.636 23.1757 140.3 22.0717 139.964 21.0157C139.772 20.4877 139.484 19.9117 139.196 19.2877C138.908 18.7117 138.524 18.1357 138.092 17.5597C137.612 17.0797 137.084 16.6477 136.508 16.2637C135.884 15.9277 135.212 15.7357 134.444 15.7357C133.292 15.7357 132.236 16.1677 131.18 16.9837C130.124 17.8477 129.116 18.9037 128.156 20.1517C127.196 21.4957 126.284 22.9357 125.468 24.5677C124.604 26.1997 123.884 27.7837 123.212 29.3197C122.54 30.9037 121.964 32.3437 121.484 33.6877C121.004 35.0797 120.62 36.1837 120.428 36.9517C120.092 36.8557 119.804 36.8077 119.516 36.7117C119.18 36.6637 118.844 36.6157 118.508 36.6157C117.644 36.6157 117.068 36.8557 116.732 37.2877C116.636 37.4317 116.588 37.5277 116.54 37.6237L116.156 38.3917C116.108 38.5837 116.06 38.7277 116.012 38.8717C116.156 39.3517 116.3 39.7357 116.492 40.0237C116.636 40.3117 116.828 40.5517 117.116 40.6957C117.308 40.8877 117.596 40.9837 117.98 41.0317C118.268 41.1277 118.7 41.1757 119.18 41.1757C119.036 41.7037 118.892 42.2317 118.796 42.8077C118.652 43.3837 118.508 43.9597 118.412 44.5357C118.22 45.2077 118.124 45.8317 118.076 46.4077C117.98 47.0317 117.932 47.6077 117.932 48.1357C117.932 48.4237 118.076 48.7117 118.364 48.9037C118.604 49.0957 118.94 49.2877 119.324 49.4797C119.66 49.6237 120.044 49.7197 120.428 49.8157C120.812 49.9117 121.1 49.9597 121.388 49.9597C121.964 49.9597 122.492 49.7197 122.972 49.2397C123.452 48.7597 123.692 48.2797 123.692 47.7517C123.692 46.6957 123.74 45.5917 123.836 44.4397C123.932 43.2877 124.076 42.1837 124.268 41.1277C125.516 41.0797 126.764 40.9837 127.964 40.8877C129.116 40.7917 130.22 40.6957 131.372 40.5037C132.476 40.4077 133.628 40.2157 134.78 40.0237C135.884 39.8317 137.084 39.5917 138.332 39.3037C138.332 39.4957 138.332 39.7837 138.38 40.1197C138.38 40.4557 138.428 40.7917 138.428 41.0797L138.524 42.0877V42.7597C138.524 43.0477 138.476 43.3357 138.428 43.5757C138.332 43.8637 138.236 44.1517 138.188 44.3917C138.092 44.6797 137.996 44.9677 137.948 45.2077C137.852 45.4957 137.804 45.8317 137.804 46.1197C137.804 46.5037 137.9 46.7917 138.14 47.0797C138.332 47.3677 138.572 47.6557 138.908 47.8477C139.196 48.0877 139.58 48.2797 139.964 48.3757C140.348 48.4717 140.684 48.5197 141.02 48.5197C141.98 48.5197 142.7 48.1837 143.132 47.5117C143.564 46.8877 143.804 46.2157 143.804 45.4477ZM137.852 35.6557C135.74 36.1357 133.676 36.4717 131.612 36.7597C129.5 37.0957 127.388 37.2877 125.276 37.2877C125.612 36.0397 126.044 34.6957 126.524 33.3517C127.004 32.0077 127.532 30.7117 128.108 29.3677C128.684 28.0717 129.308 26.7757 130.028 25.5277C130.7 24.3277 131.468 23.1757 132.332 22.0717C132.764 21.5437 133.196 21.1117 133.628 20.7277C134.012 20.3437 134.3 20.1517 134.588 20.1517C134.636 20.1517 134.684 20.2477 134.78 20.3917C134.828 20.5837 134.876 20.6797 134.876 20.6797C135.116 21.3517 135.308 21.9757 135.5 22.5517C135.644 23.1277 135.788 23.7517 135.98 24.3757L136.412 26.3917L136.7 28.2157C136.94 29.3677 137.18 30.6157 137.372 31.9117C137.516 33.2557 137.66 34.5037 137.852 35.6557Z" fill="#7755A3"/>
<path d="M26.3349 7.46466C26.3349 6.32866 26.0509 5.33466 25.6249 4.41166C25.1279 3.55966 24.4889 2.77866 23.7789 2.13966C22.9979 1.57166 22.1459 1.07466 21.2229 0.719658C20.2289 0.435658 19.3059 0.222656 18.3829 0.222656C16.5369 0.222656 14.9749 0.932656 13.5549 2.28166C12.1349 3.70166 10.9279 5.61866 10.0049 8.17466C9.43692 9.59466 9.08192 11.2277 8.79792 13.1447C8.44292 15.1327 8.22992 17.1917 8.15892 19.3927C8.15892 19.5347 8.08792 19.8187 8.08792 20.1027V21.8067C7.37792 21.8777 6.66792 21.8777 5.95792 21.8777C5.17692 21.8777 4.53792 21.9487 4.11192 21.9487C3.61492 22.0197 3.18892 22.0197 2.90492 22.0197C2.54992 22.0197 2.33692 22.0907 2.26592 22.0907C0.987922 22.3747 0.419922 23.2267 0.419922 24.7177C0.419922 25.4987 0.703922 26.1377 1.34292 26.6347C2.05292 27.1317 2.76292 27.3447 3.54392 27.3447H5.03492C5.88692 27.3447 6.88092 27.3447 7.94592 27.2737L7.80392 32.7407L7.66192 37.8527V44.3137C7.66192 44.8817 7.66192 45.4497 7.80392 46.1597C7.80392 46.8697 7.94592 47.5797 8.22992 48.1477C8.44292 48.7867 8.79792 49.2837 9.22392 49.7097C9.64992 50.1357 10.2179 50.3487 10.9279 50.3487C11.4959 50.3487 12.0639 50.1357 12.7739 49.7807C13.4129 49.3547 13.8389 48.9997 13.9809 48.5737C13.8389 47.8637 13.6259 46.9407 13.4839 45.8047C13.3419 44.6687 13.2709 42.9647 13.2709 40.6927C13.2709 40.3377 13.1999 39.5567 13.1999 38.2787V34.1607L13.0579 29.9717V26.9187H16.1819C18.3829 26.9187 20.0159 26.6347 21.0809 26.1377C21.4359 25.7827 21.6489 25.4987 21.7909 25.2147C21.8619 25.0727 21.9329 24.7177 21.9329 24.1497C21.9329 23.0847 21.5069 22.3747 20.7259 22.0197C19.8739 21.7357 19.0219 21.5227 18.1699 21.5227H15.8979C15.1879 21.5227 14.2649 21.5937 13.0579 21.5937C13.0579 19.1797 13.1999 16.9077 13.4839 14.8487C13.7679 12.8607 14.1229 11.1567 14.6199 9.73666C15.0459 8.31666 15.6139 7.25166 16.1819 6.47066C16.7499 5.68966 17.3889 5.26365 18.0279 5.26365C19.0219 5.26365 19.8029 5.54766 20.2999 6.11566C20.7969 6.68366 21.2229 7.67766 21.5779 8.95566C21.7909 9.23966 22.0749 9.45266 22.3589 9.59466C22.6429 9.80766 22.8559 9.87866 23.1399 9.87866C23.8499 9.87866 24.5599 9.59466 25.2699 9.02666C25.9799 8.52966 26.3349 8.03266 26.3349 7.46466Z" fill="#7755A3"/>
<path d="M56.5643 19.2507C56.5643 18.8247 56.3513 18.3987 56.0673 17.9727C55.7123 17.6887 55.2863 17.4047 54.7893 17.1207C54.2213 16.8367 53.7243 16.6237 53.1563 16.4817C52.5173 16.3397 51.9493 16.2687 51.5233 16.2687C50.3873 16.2687 49.2513 16.5527 48.0443 17.1207C46.7663 17.6887 45.5593 18.3987 44.3523 19.3927C43.0743 20.4577 41.8673 21.7357 40.7313 23.2267C39.5243 24.7887 38.4593 26.4927 37.6073 28.3387C37.7493 26.7057 37.8203 25.2147 37.9623 23.9367C37.9623 22.7297 38.0333 21.5937 38.0333 20.5997C38.0333 19.6767 37.6783 18.9667 37.1103 18.3987C36.4713 17.9017 35.7613 17.6177 34.9803 17.6177C34.1993 17.6177 33.5603 17.9017 32.9923 18.3277C32.3533 18.8247 31.9273 19.3927 31.7143 20.0317C31.6433 20.2447 31.5723 20.7417 31.5723 21.5937C31.5013 22.4457 31.4303 23.5107 31.4303 24.6467L31.2883 28.6227V32.6697C31.2883 34.5157 31.2883 36.2907 31.4303 38.0657L31.5723 43.4617C31.5723 44.3137 31.7143 45.1657 31.8563 46.0177C31.9273 46.8697 32.2113 47.6507 32.6373 48.2897C33.2053 49.2127 34.1993 49.7097 35.6193 49.7097C36.6133 49.7097 37.3943 49.4257 38.0333 48.9287C38.6013 48.3607 38.9563 47.7217 38.9563 46.8697C38.9563 45.5917 38.8143 44.1717 38.5303 42.5387C38.1753 40.9767 38.0333 39.4147 38.0333 37.8527C38.0333 37.2847 38.1753 36.5037 38.5303 35.5807C38.8853 34.7287 39.3113 33.8767 39.8793 32.8827C40.3763 31.9597 40.9443 30.9657 41.6543 29.9007C42.2933 28.9067 42.9323 27.9837 43.5003 26.9897C43.7843 26.4927 44.2813 25.9247 44.8493 25.2147C45.4173 24.5757 46.0563 23.9367 46.7663 23.3687C47.4763 22.8007 48.3283 22.3747 49.1803 21.9487C49.9613 21.5227 50.8133 21.3097 51.6653 21.3097C51.8783 21.3097 52.2333 21.4517 52.7303 21.5937C52.8723 21.6647 53.1563 21.6647 53.5823 21.6647C53.9373 21.7357 54.1503 21.7357 54.2923 21.7357C54.7893 21.7357 55.2863 21.4517 55.8543 20.8837C56.2803 20.3157 56.5643 19.8187 56.5643 19.2507Z" fill="#7755A3"/>
<path d="M172.767 43.7397C172.767 43.3847 172.554 43.0297 172.27 42.6747C171.986 42.3907 171.56 42.2487 171.063 42.2487C170.424 42.2487 169.998 42.3907 169.714 42.6747C169.43 42.9587 169.217 43.3137 169.075 43.6687C168.933 43.8817 168.862 44.0947 168.72 44.2367C168.578 44.3787 168.507 44.5207 168.507 44.5207C167.939 45.0177 167.229 45.2307 166.377 45.2307C165.099 45.2307 164.105 44.6627 163.324 43.5267C162.472 42.3907 162.117 40.4737 162.117 37.7757C162.117 35.5747 162.117 33.3027 162.259 31.0307C162.33 28.8297 162.472 26.4157 162.614 23.8597C162.969 23.8597 163.466 23.7887 164.034 23.7177L165.596 23.5757C166.874 23.4337 168.01 23.2207 169.004 22.9367C169.856 22.7237 170.566 22.4397 171.276 22.0847C171.986 21.8007 172.341 21.3037 172.341 20.7357C172.341 20.3097 172.128 20.0257 171.844 19.8837C171.418 19.7417 171.063 19.6707 170.708 19.5287C170.495 19.5287 170.211 19.5287 169.856 19.3867L168.436 19.2447H162.898C162.898 18.9607 162.969 18.5347 163.04 17.8957L163.324 15.9077L163.608 13.7777C163.608 13.0677 163.679 12.4997 163.821 12.0027L164.034 10.7247C164.105 10.3697 164.176 9.94366 164.176 9.51765C164.176 9.23366 163.963 8.94966 163.608 8.59466C163.253 8.31066 162.827 8.02666 162.401 7.74266C161.904 7.52966 161.407 7.31666 160.91 7.10366C160.342 6.96166 159.845 6.81966 159.561 6.81966C158.993 6.81966 158.496 6.89065 158.07 7.03266C157.502 7.17466 157.147 7.38766 156.934 7.60066C156.863 7.67166 156.792 7.81366 156.721 8.02666C156.579 8.23966 156.579 8.45266 156.579 8.66566C156.579 8.94966 156.508 9.58866 156.508 10.5827C156.508 11.5767 156.437 12.7127 156.437 13.8487C156.366 14.9847 156.366 16.1207 156.366 17.1147C156.295 18.2507 156.295 18.9607 156.295 19.3157C156.011 19.3157 155.514 19.3867 154.946 19.3867L153.1 19.5287C152.39 19.5287 151.751 19.5997 151.112 19.5997C150.473 19.6707 149.976 19.6707 149.621 19.6707C148.911 19.6707 148.414 19.8127 147.988 19.9547C147.562 20.1677 147.42 20.5227 147.42 21.0197C147.42 22.0137 147.633 22.8657 148.201 23.7177C148.698 24.5697 149.408 24.9957 150.402 24.9957C151.112 24.9957 151.964 24.9247 152.958 24.7827L156.153 24.4987C156.082 26.8417 156.082 28.9717 156.082 30.9597C156.011 32.9477 156.011 34.9357 156.011 36.8527C156.011 38.2727 156.082 39.6217 156.366 40.9707C156.579 42.3907 157.005 43.6687 157.644 44.8047C158.283 45.9407 159.206 46.7927 160.342 47.5027C161.407 48.2127 162.827 48.5677 164.673 48.5677C165.383 48.5677 166.235 48.4257 167.3 48.2127C168.294 47.9997 169.217 47.6447 170.069 47.2187C170.708 46.8637 171.347 46.3667 171.915 45.6567C172.483 45.0887 172.767 44.4497 172.767 43.7397Z" fill="#7755A3"/>
<path d="M142.344 9.34166C142.344 8.01566 142.11 6.76766 141.72 5.63666C141.252 4.54466 140.628 3.56966 139.848 2.75066C139.029 1.97066 138.054 1.34666 136.884 0.878658C135.714 0.488658 134.388 0.254658 132.945 0.254658C131.541 0.254658 130.332 0.566658 129.318 1.19066C128.226 1.81466 127.368 2.59466 126.666 3.53066C125.964 4.46666 125.418 5.55866 125.106 6.72866C124.716 7.89866 124.56 9.06866 124.56 10.1607C124.56 11.4867 124.755 12.6567 125.184 13.7097C125.613 14.8017 126.198 15.6987 126.978 16.4787C127.68 17.2587 128.577 17.8437 129.63 18.2727C130.644 18.6627 131.736 18.8967 132.984 18.8967C134.349 18.8967 135.636 18.5847 136.806 18.0387C137.937 17.4927 138.912 16.7907 139.77 15.8547C140.55 14.9967 141.174 13.9827 141.642 12.8127C142.11 11.6817 142.344 10.5117 142.344 9.34166ZM138.795 8.83466C138.795 9.53666 138.639 10.2777 138.405 11.0577C138.132 11.8767 137.742 12.6177 137.274 13.2807C136.767 13.9827 136.182 14.5287 135.48 14.9967C134.778 15.4647 134.037 15.6597 133.179 15.6597C131.658 15.6597 130.488 15.1527 129.708 14.1387C128.889 13.1637 128.499 11.8767 128.499 10.2387C128.499 9.45866 128.616 8.67866 128.889 7.89866C129.123 7.11866 129.474 6.37766 129.942 5.71466C130.41 5.09066 130.956 4.58366 131.58 4.15466C132.204 3.76466 132.945 3.53066 133.725 3.53066C135.441 3.53066 136.728 4.03766 137.586 5.05166C138.366 6.06566 138.795 7.35266 138.795 8.83466Z" fill="#7755A3"/>
<path d="M111.344 9.34166C111.344 8.01566 111.11 6.76766 110.72 5.63666C110.252 4.54466 109.628 3.56966 108.848 2.75066C108.029 1.97066 107.054 1.34666 105.884 0.878658C104.714 0.488658 103.388 0.254658 101.945 0.254658C100.541 0.254658 99.3319 0.566658 98.3179 1.19066C97.2259 1.81466 96.3679 2.59466 95.6659 3.53066C94.9639 4.46666 94.4179 5.55866 94.1059 6.72866C93.7159 7.89866 93.5599 9.06866 93.5599 10.1607C93.5599 11.4867 93.7549 12.6567 94.1839 13.7097C94.6129 14.8017 95.1979 15.6987 95.9779 16.4787C96.6799 17.2587 97.5769 17.8437 98.6299 18.2727C99.6439 18.6627 100.736 18.8967 101.984 18.8967C103.349 18.8967 104.636 18.5847 105.806 18.0387C106.937 17.4927 107.912 16.7907 108.77 15.8547C109.55 14.9967 110.174 13.9827 110.642 12.8127C111.11 11.6817 111.344 10.5117 111.344 9.34166ZM107.795 8.83466C107.795 9.53666 107.639 10.2777 107.405 11.0577C107.132 11.8767 106.742 12.6177 106.274 13.2807C105.767 13.9827 105.182 14.5287 104.48 14.9967C103.778 15.4647 103.037 15.6597 102.179 15.6597C100.658 15.6597 99.4879 15.1527 98.7079 14.1387C97.8889 13.1637 97.4989 11.8767 97.4989 10.2387C97.4989 9.45866 97.6159 8.67866 97.8889 7.89866C98.1229 7.11866 98.4739 6.37766 98.9419 5.71466C99.4099 5.09066 99.9559 4.58366 100.58 4.15466C101.204 3.76466 101.945 3.53066 102.725 3.53066C104.441 3.53066 105.728 4.03766 106.586 5.05166C107.366 6.06566 107.795 7.35266 107.795 8.83466Z" fill="#7755A3"/>
<path d="M80.3439 9.34166C80.3439 8.01566 80.1099 6.76766 79.7199 5.63666C79.2519 4.54466 78.6279 3.56966 77.8479 2.75066C77.0289 1.97066 76.0539 1.34666 74.8839 0.878658C73.7139 0.488658 72.3879 0.254658 70.9449 0.254658C69.5409 0.254658 68.3319 0.566658 67.3179 1.19066C66.2259 1.81466 65.3679 2.59466 64.6659 3.53066C63.9639 4.46666 63.4179 5.55866 63.1059 6.72866C62.7159 7.89866 62.5599 9.06866 62.5599 10.1607C62.5599 11.4867 62.7549 12.6567 63.1839 13.7097C63.6129 14.8017 64.1979 15.6987 64.9779 16.4787C65.6799 17.2587 66.5769 17.8437 67.6299 18.2727C68.6439 18.6627 69.7359 18.8967 70.9839 18.8967C72.3489 18.8967 73.6359 18.5847 74.8059 18.0387C75.9369 17.4927 76.9119 16.7907 77.7699 15.8547C78.5499 14.9967 79.1739 13.9827 79.6419 12.8127C80.1099 11.6817 80.3439 10.5117 80.3439 9.34166ZM76.7949 8.83466C76.7949 9.53666 76.6389 10.2777 76.4049 11.0577C76.1319 11.8767 75.7419 12.6177 75.2739 13.2807C74.7669 13.9827 74.1819 14.5287 73.4799 14.9967C72.7779 15.4647 72.0369 15.6597 71.1789 15.6597C69.6579 15.6597 68.4879 15.1527 67.7079 14.1387C66.8889 13.1637 66.4989 11.8767 66.4989 10.2387C66.4989 9.45866 66.6159 8.67866 66.8889 7.89866C67.1229 7.11866 67.4739 6.37766 67.9419 5.71466C68.4099 5.09066 68.9559 4.58366 69.5799 4.15466C70.2039 3.76466 70.9449 3.53066 71.7249 3.53066C73.4409 3.53066 74.7279 4.03766 75.5859 5.05166C76.3659 6.06566 76.7949 7.35266 76.7949 8.83466Z" fill="#7755A3"/>
</svg>
